<?xml version="1.0" encoding="utf-8"?>
<!-- Generator: Adobe Illustrator 23.0.4, SVG Export Plug-In . SVG Version: 6.00 Build 0)  -->
<svg version="1.1" id="Layer_1" xmlns="http://www.w3.org/2000/svg" xmlns:xlink="http://www.w3.org/1999/xlink" x="0px" y="0px"
	 viewBox="0 0 607.34 139.27" style="enable-background:new 0 0 607.34 139.27;" xml:space="preserve">
<style type="text/css">
	.st0{fill:#ACA095;}
	.st1{fill:#241F21;}
	.st2{fill:none;stroke:#00A6DF;stroke-width:1.8915;}
</style>
<g>
	<path class="st0" d="M74.91,54.23c-0.05-2.17-0.05-4-0.2-5.72l-7.92,0.28c-1.08,0.06-1.7,0.23-1.8,1.72
		c-0.21,1.37-0.52,2.86-0.57,4.4h-1.54c0-1.09,0-2.12-0.05-3.21c-0.05-2-0.1-4-0.26-6.12c4.88,0.17,9.78,0.28,14.82,0.28
		c4.99,0,9.88-0.11,14.87-0.28c-0.15,2.12-0.2,4.12-0.26,6.12c-0.05,1.09-0.05,2.12-0.05,3.21H90.4c-0.05-1.55-0.36-3.03-0.57-4.4
		c-0.1-1.49-0.72-1.66-1.8-1.72L80,48.52c-0.16,1.72-0.16,3.54-0.21,5.72V78.7c0,4.46-0.05,4.87,4.89,5.15v1.72
		c-2.47-0.17-4.89-0.28-7.41-0.28c-2.52,0-4.94,0.11-7.25,0.28v-1.72c4.94-0.28,4.88-0.68,4.88-5.15V54.23z"/>
	<path class="st0" d="M98.63,50.63c0-2.34-2.37-3.03-4.17-3.03v-1.72c2.83-0.46,5.61-0.97,8.49-1.94c0.2,0.23,0.26,0.63,0.26,1.14
		l-0.26,8.75v10.01l3.91-3.83c1.24-1.2,2.52-1.55,4.17-1.55c4.06,0,7.41,3.26,7.41,9.38v8.86c0,5.72,0,6.86,3.86,7.14v1.72
		c-1.39-0.17-2.72-0.28-4.11-0.28c-1.44,0-2.78,0.11-4.07,0.28V70.18c0-5.21-2.01-8.06-4.84-8.06c-6.33,0-6.33,5.2-6.33,7.78v6.8
		c0,5.72,0.2,7.14,4.27,7.14v1.72c-2.11-0.17-4.27-0.28-6.43-0.28c-2.16,0-4.32,0.11-6.43,0.28v-1.72c4.27-0.28,4.27-1.43,4.27-7.14
		V50.63z"/>
	<path class="st0" d="M138.93,70.18l2.93-0.18c0.26-4.74-1.03-9.6-6.07-9.6c-4.63,0-6.23,4.97-6.23,9.43
		c1.29,0.17,2.57,0.23,3.86,0.23L138.93,70.18z M144.94,83.34c-2.42,1.83-5.4,3.08-8.33,3.08c-7.72,0-11.84-5.49-11.84-13.44
		c0-2.57-0.05-7.65,4.43-11.38c2.01-1.65,4.94-3.14,7.46-3.14c5.66,0,9.83,4,9.83,10.47c0,0.8,0,1.6-0.1,2.4
		c-3.09,0.57-6.23,0.8-9.32,0.8h-7.51c0,6.69,2.99,11.26,9.31,11.26c2.47,0,4.37-1.31,6.43-2.63l0.51,0.63L144.94,83.34z"/>
	<path class="st1" d="M167.18,77.79c0,1.66,0,3.37,0.21,4.86c1.44,0.23,2.98,0.35,4.83,0.4c13.12,0.4,17.55-7.72,17.55-18.18
		c0-12.07-6.69-16.7-15.54-16.7c-2.27,0-4.53,0.23-6.84,0.34c-0.16,1.31-0.21,2.8-0.21,4.86V77.79z M162.34,53.15
		c0-5.37-0.46-5.72-4.53-5.78V45.6c3.3,0.17,6.59,0.28,9.99,0.28c3.39,0,6.69-0.11,9.98-0.28c9.58-0.12,17.4,6.46,17.4,17.56
		c0,13.78-9.53,23.33-21.87,22.41c-2.27-0.17-4.53-0.28-6.84-0.28c-2.32,0-4.58,0.11-6.84,0.28v-1.72c1.85-0.4,2.72-0.97,2.72-3.43
		V53.15z"/>
	<path class="st1" d="M211.74,70.75c-2.36,0.4-4.64,0.97-6.43,1.66c-3.65,1.37-3.96,4.29-3.96,6.57c0,2.52,1.9,4.12,4.01,4.12
		c2.11,0,3.5-1.83,5.15-3.08c0.46-0.57,0.98-1.15,1.24-1.72V70.75z M211.74,68.93c0.26-4.58-1.75-7.44-6.02-7.44
		c-1.29,0-2.67,0.23-3.75,1.03c-0.62,0.97-0.99,2.06-1.65,3.83l-1.33-0.4v-1.83c0-0.8-0.21-1.72,0.41-2.17
		c2.06-1.49,4.94-3.49,8.28-3.49c6.95,0,8.39,4.63,8.39,11.38V80.3c0,3.2,1.03,3.54,3.45,3.54v1.72c-1.28-0.17-2.57-0.28-3.86-0.28
		c-1.34,0-2.63,0.11-4.12,0.28c0.21-1.03,0.26-2,0.21-2.8v-2.17l-5.56,4.57c-0.93,0.74-1.65,1.26-2.78,1.26
		c-4.12,0-6.48-2.74-6.48-7.37c0-6.58,5.2-8.18,9.93-9.1L211.74,68.93z"/>
	<path class="st1" d="M222.6,63.78c-0.83-2.23-1.55-3.03-3.76-3.03v-1.71h11.99v1.71c-5.04,0.28-3.55,2.4-2.42,5.49l5.2,14.24
		c1.08-2.63,2.21-5.32,3.2-8.01l2.16-6.06c1.13-3.2,2.72-6-2.37-5.66v-1.71h9.67v1.71c-1.64,0-3.14,1.08-5.61,7.14l-4.84,11.89
		l-1.54,4.23l-0.67,1.66h-2.62L222.6,63.78z"/>
	<path class="st1" d="M257.34,49.19c0,1.66-1.39,3.15-2.88,3.15c-1.49,0-2.83-1.49-2.83-3.15c0-1.65,1.34-3.19,2.83-3.19
		C255.95,46,257.34,47.54,257.34,49.19 M252.55,65.15c0-2.35-2.36-3.03-4.17-3.03v-1.72c2.83-0.46,5.61-0.97,8.49-1.95
		c0.21,0.23,0.26,0.63,0.26,1.14l-0.26,8.75v8.34c0,5.72,0.21,7.14,4.27,7.14v1.72c-2.11-0.17-4.27-0.28-6.43-0.28
		c-2.16,0-4.32,0.11-6.43,0.28v-1.72c4.27-0.28,4.27-1.43,4.27-7.14V65.15z"/>
	<path class="st1" d="M278.64,66.35c-0.05-1.83-0.16-3.32-1.6-4.52c-1.13-0.91-2.98-1.49-4.37-1.49c-4.69,0-5.92,4.46-4.48,6.58
		c3.14,4.46,14,1.03,14,9.89c0,6.29-5.61,9.61-11.32,9.61c-2.26,0-4.58-0.46-7.1-1.66c0.26-2,0.46-4.98,0.46-7.66h1.55v1.48
		c0.21,2.8-0.2,2.98,2.01,4.41c1.13,0.74,2.73,1.32,4.63,1.32c3.24,0,6.02-2.12,6.02-5.21c0-1.83-0.93-3.15-2.47-3.77
		c-4.27-1.78-11.94-1.49-11.94-8.52c0-6.18,4.84-8.35,9.68-8.35c1.95,0,4.53,0.51,6.69,1.55c-0.2,1.25-0.31,3.71-0.31,6.34H278.64z"
		/>
	<path class="st0" d="M326.19,83.05c-3.24,2.06-8.39,3.37-11.63,3.37c-11.37,0-20.84-7.44-20.84-20.98c0-13.26,9.62-20.7,19.81-20.7
		c4.52,0,9.05,1.21,13.38,2.58c-0.51,2.85-0.83,5.71-1.13,8.57h-1.5c-0.15-3.66,0.67-4.98-2.37-6.63c-2.1-1.14-4.58-2.12-8.28-2.12
		c-8.49,0-14.36,6.69-14.36,17.04c0,11.43,6.69,19.33,17.04,19.33c3.71,0,7.36-1.32,10.44-3.6l0.47,0.57L326.19,83.05z"/>
	<path class="st0" d="M334.48,70.58c0,6,1.95,13.89,8.54,13.89c4.69,0,6.58-5.15,6.58-10.46c0-7.38-3.03-14.13-7.97-13.67
		C336.18,60.35,334.48,65.27,334.48,70.58 M329.69,73.05c0-8.58,4.84-14.58,13.13-14.58c6.59,0,11.68,5.72,11.68,13.04
		c0,8.75-5.61,14.92-13.49,14.92C334.53,86.65,329.69,80.93,329.69,73.05"/>
	<path class="st0" d="M360.56,65.15c0-2.35-2.36-3.03-4.27-3.03v-1.72c2.42-0.46,5.2-0.97,8.13-1.95c0.21,0.23,0.26,0.63,0.26,1.14
		v4l3.49-3.6c1.19-1.2,2.53-1.55,4.23-1.55c3.55,0,6.17,1.55,7.61,5.31l3.61-3.54c1.43-1.43,2.41-1.77,4.83-1.77
		c4.07,0,7.42,3.26,7.42,9.38v8.86c0,5.72,0,6.86,3.86,7.14v1.72c-1.39-0.17-2.73-0.28-4.12-0.28c-1.44,0-2.78,0.11-4.07,0.28V70.18
		c0-5.21-2-8.06-4.84-8.06c-6.33,0-6.33,5.2-6.33,7.78v6.8c0,5.72,0.21,7.14,4.27,7.14v1.72c-2.1-0.17-4.27-0.28-6.43-0.28
		c-2.16,0-4.33,0.11-6.44,0.28v-1.72c4.28-0.28,4.28-1.43,4.28-7.14v-3.89c0-1.94-0.05-4-0.31-5.89c-0.36-2.86-2.21-4.8-4.89-4.8
		c-5.97,0-5.97,5.2-5.97,7.78v6.8c0,5.72,0.2,7.14,4.27,7.14v1.72c-2.11-0.17-4.27-0.28-6.43-0.28c-2.16,0-4.32,0.11-6.43,0.28
		v-1.72c4.27-0.28,4.27-1.43,4.27-7.14V65.15z"/>
	<path class="st0" d="M409.29,79.67c1.86,2.12,4.38,3.27,6.95,3.27c4.79,0,8.03-4.86,8.03-10.93c0-5.54-2.57-10-7.98-10
		c-2.73,0-5.45,1.83-6.74,4.52c-0.26,0.52-0.26,1.03-0.26,1.55V79.67z M404.97,65.15c0-2.35-2.36-3.03-4.27-3.03v-1.72
		c2.42-0.46,5.2-0.97,8.13-1.95c0.21,0.23,0.26,0.63,0.26,1.14v4c1.96-1.14,3.4-3.26,5.41-4.29c1.34-0.69,2.88-0.86,4.32-0.86
		c6.07,0,9.98,4.63,9.98,11.32c0,3.78-1.54,7.5-3.76,10.35c-0.31,0.46-0.77,0.69-1.18,0.97l-1.85,1.32l-3.35,2.46
		c-1.18,0.86-2.57,1.09-3.91,1.09c-1.75,0-3.13-0.51-5.46-1.72v8.35c0,5.72,0.2,7.15,4.27,7.15v1.72c-2.11-0.17-4.27-0.29-6.43-0.29
		c-2.16,0-4.32,0.12-6.43,0.29v-1.72c4.27-0.29,4.27-1.43,4.27-7.15V65.15z"/>
	<path class="st0" d="M444.75,70.75c-2.37,0.4-4.63,0.97-6.43,1.66c-3.66,1.37-3.96,4.29-3.96,6.57c0,2.52,1.9,4.12,4.01,4.12
		c2.11,0,3.5-1.83,5.15-3.08c0.46-0.57,0.98-1.15,1.23-1.72V70.75z M444.75,68.93c0.25-4.58-1.75-7.44-6.02-7.44
		c-1.29,0-2.69,0.23-3.76,1.03c-0.62,0.97-0.97,2.06-1.64,3.83l-1.34-0.4v-1.83c0-0.8-0.2-1.72,0.42-2.17
		c2.06-1.49,4.94-3.49,8.29-3.49c6.94,0,8.38,4.63,8.38,11.38V80.3c0,3.2,1.03,3.54,3.45,3.54v1.72c-1.29-0.17-2.57-0.28-3.86-0.28
		c-1.33,0-2.62,0.11-4.11,0.28c0.2-1.03,0.26-2,0.2-2.8v-2.17l-5.56,4.57c-0.92,0.74-1.64,1.26-2.78,1.26
		c-4.12,0-6.48-2.74-6.48-7.37c0-6.58,5.2-8.18,9.93-9.1L444.75,68.93z"/>
	<path class="st0" d="M459.58,65.15c0-2.35-2.36-3.03-4.27-3.03v-1.72c2.42-0.46,5.2-0.97,8.13-1.95c0.21,0.23,0.26,0.63,0.26,1.14
		v4l4.88-4.23c0.67-0.69,2.52-0.92,3.4-0.92c4.06,0,7.41,3.26,7.41,9.38v8.86c0,5.72,0,6.86,3.86,7.14v1.72
		c-1.39-0.17-2.73-0.28-4.11-0.28c-1.44,0-2.79,0.11-4.07,0.28V70.18c0-5.21-2.01-8.06-4.84-8.06c-6.33,0-6.33,5.2-6.33,7.78v6.8
		c0,5.72,0.21,7.14,4.27,7.14v1.72c-2.11-0.17-4.27-0.28-6.43-0.28c-2.16,0-4.32,0.11-6.44,0.28v-1.72
		c4.27-0.28,4.27-1.43,4.27-7.14V65.15z"/>
	<path class="st0" d="M494.31,49.19c0,1.66-1.39,3.15-2.88,3.15c-1.49,0-2.83-1.49-2.83-3.15c0-1.65,1.34-3.19,2.83-3.19
		C492.92,46,494.31,47.54,494.31,49.19 M489.52,65.15c0-2.35-2.37-3.03-4.17-3.03v-1.72c2.83-0.46,5.61-0.97,8.5-1.95
		c0.2,0.23,0.26,0.63,0.26,1.14l-0.26,8.75v8.34c0,5.72,0.2,7.14,4.27,7.14v1.72c-2.11-0.17-4.27-0.28-6.43-0.28
		c-2.16,0-4.32,0.11-6.43,0.28v-1.72c4.27-0.28,4.27-1.43,4.27-7.14V65.15z"/>
	<path class="st0" d="M513.81,70.18l2.93-0.18c0.25-4.74-1.03-9.6-6.08-9.6c-4.63,0-6.23,4.97-6.23,9.43
		c1.29,0.17,2.58,0.23,3.87,0.23L513.81,70.18z M519.83,83.34c-2.42,1.83-5.4,3.08-8.33,3.08c-7.72,0-11.84-5.49-11.84-13.44
		c0-2.57-0.05-7.65,4.43-11.38c2-1.65,4.94-3.14,7.46-3.14c5.66,0,9.83,4,9.83,10.47c0,0.8,0,1.6-0.1,2.4
		c-3.09,0.57-6.23,0.8-9.32,0.8h-7.52c0,6.69,2.99,11.26,9.33,11.26c2.46,0,4.37-1.31,6.43-2.63l0.52,0.63L519.83,83.34z"/>
	<path class="st0" d="M539.23,66.35c-0.05-1.83-0.15-3.32-1.59-4.52c-1.13-0.91-2.99-1.49-4.38-1.49c-4.68,0-5.91,4.46-4.47,6.58
		c3.14,4.46,14,1.03,14,9.89c0,6.29-5.61,9.61-11.32,9.61c-2.27,0-4.58-0.46-7.1-1.66c0.25-2,0.46-4.98,0.46-7.66h1.54v1.48
		c0.21,2.8-0.2,2.98,2.01,4.41c1.13,0.74,2.73,1.32,4.63,1.32c3.24,0,6.02-2.12,6.02-5.21c0-1.83-0.92-3.15-2.47-3.77
		c-4.27-1.78-11.94-1.49-11.94-8.52c0-6.18,4.84-8.35,9.68-8.35c1.95,0,4.53,0.51,6.69,1.55c-0.21,1.25-0.31,3.71-0.31,6.34H539.23z
		"/>
	<line class="st2" x1="0.95" y1="27.94" x2="1.05" y2="139.27"/>
	<line class="st2" x1="0.24" y1="138.32" x2="157.24" y2="138.32"/>
	<line class="st2" x1="450.38" y1="0.98" x2="607.34" y2="0.95"/>
	<line class="st2" x1="606.39" y1="0.59" x2="606.39" y2="111.35"/>
</g>
</svg>
